<svg width="30" height="32" viewBox="0 0 30 32" fill="none" xmlns="http://www.w3.org/2000/svg">
<g filter="url(#filter0_d)">
<path d="M13.9347 22.9359C14.2777 23.1191 14.7082 23.1179 15.0512 22.9348C24.3986 17.9134 25.0624 8.10294 25.0542 5.31344C25.0534 5.08925 24.9871 4.87017 24.8636 4.68305C24.7401 4.49594 24.5647 4.3489 24.3589 4.25994L14.9672 0.0996104C14.8178 0.0337282 14.6562 -0.000200019 14.4929 8.87051e-07C14.3295 0.000201793 14.168 0.0345273 14.0187 0.100777L4.69241 4.26111C4.48964 4.35011 4.31673 4.49553 4.19428 4.68003C4.07182 4.86454 4.00499 5.08036 4.00174 5.30178C3.96208 8.07728 4.52091 17.9088 13.9347 22.9359ZM10.6517 9.56478L13.3269 12.2399L18.3354 7.23144L19.9851 8.88111L13.3269 15.5393L9.00208 11.2144L10.6517 9.56478Z" fill="#2CDF7E"/>
</g>
<defs>
<filter id="filter0_d" x="0" y="0" width="29.0543" height="31.0727" filterUnits="userSpaceOnUse" color-interpolation-filters="sRGB">
<feFlood flood-opacity="0" result="BackgroundImageFix"/>
<feColorMatrix in="SourceAlpha" type="matrix" values="0 0 0 0 0 0 0 0 0 0 0 0 0 0 0 0 0 0 127 0"/>
<feOffset dy="4"/>
<feGaussianBlur stdDeviation="2"/>
<feColorMatrix type="matrix" values="0 0 0 0 0 0 0 0 0 0 0 0 0 0 0 0 0 0 0.25 0"/>
<feBlend mode="normal" in2="BackgroundImageFix" result="effect1_dropShadow"/>
<feBlend mode="normal" in="SourceGraphic" in2="effect1_dropShadow" result="shape"/>
</filter>
</defs>
</svg>
