<svg width="112" height="34" viewBox="0 0 112 34" fill="none" xmlns="http://www.w3.org/2000/svg">
<circle cx="55.7114" cy="17.0309" r="16.4536" fill="#FFCB47"/>
<path d="M55.8479 8.38346C55.8959 8.23572 56.1049 8.23572 56.1529 8.38346L58.0761 14.3023C58.0976 14.3684 58.1591 14.4131 58.2286 14.4131H64.452C64.6074 14.4131 64.672 14.6119 64.5463 14.7032L59.5114 18.3612C59.4552 18.4021 59.4317 18.4745 59.4532 18.5405L61.3763 24.4594C61.4243 24.6071 61.2552 24.73 61.1295 24.6387L56.0947 20.9806C56.0385 20.9398 55.9624 20.9398 55.9062 20.9806L50.8713 24.6387C50.7456 24.73 50.5765 24.6071 50.6245 24.4594L52.5477 18.5405C52.5691 18.4745 52.5456 18.4021 52.4894 18.3612L47.4546 14.7032C47.3289 14.6119 47.3935 14.4131 47.5488 14.4131H53.7722C53.8417 14.4131 53.9033 14.3684 53.9248 14.3023L55.8479 8.38346Z" fill="white"/>
<circle cx="16.1649" cy="16.1649" r="16.1649" fill="#FB5E6E"/>
<path d="M16.3209 12.0723C13.4056 7.7819 7.50507 10.1192 7.50507 14.7928C7.50507 18.3024 15.5944 23.7922 16.3209 24.5061C17.0525 23.7922 24.7395 18.3024 24.7395 14.7928C24.7395 10.1546 19.2417 7.7819 16.3209 12.0723Z" fill="white"/>
<circle cx="95.5464" cy="17.0309" r="16.4536" fill="#4A58A7"/>
<path d="M102.378 14.527C102.378 18.0862 96.8935 26.5567 95.6426 26.5567C94.3918 26.5567 88.9072 18.0862 88.9072 14.527C88.9072 10.9678 91.9228 8.08246 95.6426 8.08246C99.3625 8.08246 102.378 10.9678 102.378 14.527Z" fill="white"/>
<circle cx="95.6427" cy="14.8179" r="2.8866" fill="#4A58A7"/>
</svg>
