<svg width="24" height="24" viewBox="0 0 24 24" fill="none" xmlns="http://www.w3.org/2000/svg">
<path d="M2.40302 7.06085L11.9994 11.8584L21.5958 7.06085C21.5603 6.44938 21.2923 5.87463 20.8468 5.45432C20.4013 5.03401 19.8119 4.79994 19.1994 4.80005H4.79941C4.18692 4.79994 3.59755 5.03401 3.15203 5.45432C2.70651 5.87463 2.43854 6.44938 2.40302 7.06085Z" fill="#4A58A7"/>
<path d="M21.6 9.7417L12 14.5417L2.40002 9.7417V16.8001C2.40002 17.4366 2.65288 18.0471 3.10297 18.4972C3.55306 18.9472 4.1635 19.2001 4.80002 19.2001H19.2C19.8365 19.2001 20.447 18.9472 20.8971 18.4972C21.3472 18.0471 21.6 17.4366 21.6 16.8001V9.7417Z" fill="#4A58A7"/>
</svg>
