<svg width="42" height="44" viewBox="0 0 42 44" fill="none" xmlns="http://www.w3.org/2000/svg">
<ellipse cx="21" cy="21.8392" rx="21" ry="21.8392" fill="#4A58A7"/>
<path d="M20.6647 17.8892C19.8472 17.8892 19.0481 18.1413 18.3684 18.6136C17.6886 19.0859 17.1589 19.7572 16.846 20.5427C16.5332 21.3281 16.4513 22.1924 16.6108 23.0262C16.7703 23.86 17.164 24.6259 17.742 25.2271C18.3201 25.8282 19.0566 26.2376 19.8584 26.4035C20.6601 26.5693 21.4912 26.4842 22.2465 26.1589C23.0018 25.8335 23.6473 25.2826 24.1015 24.5757C24.5557 23.8688 24.7981 23.0378 24.7981 22.1876C24.7981 21.6231 24.6912 21.0642 24.4834 20.5427C24.2757 20.0212 23.9713 19.5473 23.5874 19.1482C23.2036 18.749 22.748 18.4324 22.2465 18.2164C21.745 18.0004 21.2075 17.8892 20.6647 17.8892ZM32.9814 27.5087C32.9279 28.5783 32.7084 29.6318 32.3314 30.6285C32.0079 31.4599 31.5269 32.2152 30.917 32.8494C30.3071 33.4836 29.5809 33.9838 28.7814 34.3203C27.8139 34.6905 26.7952 34.8954 25.7647 34.9269H15.5647C14.5343 34.8954 13.5155 34.6905 12.5481 34.3203C11.7216 34.0009 10.9752 33.4913 10.3647 32.8297C9.76083 32.2079 9.29446 31.4568 8.99805 30.6285C8.64065 29.6234 8.44906 28.5628 8.43139 27.4913V22.1876V16.8839C8.44906 15.8125 8.64065 14.7518 8.99805 13.7467C9.30519 12.8872 9.79518 12.111 10.4314 11.4762C11.0319 10.8516 11.7535 10.3671 12.5481 10.0549C13.5155 9.68473 14.5343 9.47987 15.5647 9.44831H25.7647C26.7952 9.47987 27.8139 9.68473 28.7814 10.0549C29.6079 10.3743 30.3543 10.8839 30.9647 11.5455C31.5686 12.1673 32.035 12.9185 32.3314 13.7467C32.6874 14.7529 32.8844 15.8123 32.9147 16.8839V22.1876C32.9147 25.7581 33.0314 26.1221 32.9814 27.4913V27.5087ZM30.3147 14.6134C30.1163 14.0535 29.8034 13.5451 29.3977 13.1231C28.992 12.7012 28.5031 12.3759 27.9647 12.1695C27.2255 11.903 26.447 11.774 25.6647 11.7882H15.6647C14.8785 11.7962 14.0998 11.9487 13.3647 12.2388C12.8346 12.4358 12.3509 12.7479 11.9457 13.1543C11.5405 13.5607 11.2232 14.0522 11.0147 14.596C10.7727 15.368 10.6544 16.176 10.6647 16.9879V27.3873C10.6812 28.204 10.8277 29.0123 11.0981 29.7792C11.2965 30.3391 11.6094 30.8475 12.0151 31.2694C12.4208 31.6913 12.9097 32.0167 13.4481 32.2231C14.1592 32.4951 14.9075 32.6472 15.6647 32.6737H25.6647C26.451 32.6657 27.2296 32.5132 27.9647 32.2231C28.5031 32.0167 28.992 31.6913 29.3977 31.2694C29.8034 30.8475 30.1163 30.3391 30.3147 29.7792C30.5937 29.0147 30.7404 28.205 30.7481 27.3873V22.1876V16.9879C30.7486 16.1695 30.6016 15.3582 30.3147 14.596V14.6134ZM20.6647 28.8086C19.8294 28.8086 19.0023 28.6372 18.2308 28.3043C17.4593 27.9713 16.7586 27.4834 16.1687 26.8683C15.5788 26.2533 15.1114 25.5232 14.7933 24.7201C14.4752 23.9169 14.3125 23.0563 14.3147 22.1876C14.3147 20.8774 14.6886 19.5966 15.3889 18.5074C16.0892 17.4182 17.0845 16.5696 18.2488 16.069C19.4132 15.5684 20.6942 15.4383 21.9296 15.6952C23.1651 15.952 24.2995 16.5844 25.1892 17.512C26.0789 18.4397 26.684 19.6211 26.9278 20.9066C27.1715 22.1921 27.0431 23.5239 26.5586 24.7334C26.0742 25.9429 25.2556 26.9758 24.2064 27.7012C23.1572 28.4266 21.9246 28.812 20.6647 28.8086ZM27.3314 16.8666C26.963 16.826 26.622 16.6451 26.3742 16.3587C26.1264 16.0723 25.9893 15.7006 25.9893 15.3153C25.9893 14.93 26.1264 14.5584 26.3742 14.272C26.622 13.9855 26.963 13.8046 27.3314 13.7641C27.6998 13.8046 28.0408 13.9855 28.2886 14.272C28.5364 14.5584 28.6735 14.93 28.6735 15.3153C28.6735 15.7006 28.5364 16.0723 28.2886 16.3587C28.0408 16.6451 27.6998 16.826 27.3314 16.8666Z" fill="white"/>
</svg>
