<svg width="50" height="10" viewBox="0 0 50 10" fill="none" xmlns="http://www.w3.org/2000/svg">
<path d="M4.73592 1.02141C4.81907 0.765494 5.18113 0.765494 5.26428 1.02141L6.01353 3.32736C6.05072 3.44181 6.15737 3.5193 6.27772 3.5193L8.70233 3.5193C8.97142 3.5193 9.08331 3.86364 8.86561 4.02181L6.90405 5.44696C6.80669 5.5177 6.76595 5.64308 6.80314 5.75753L7.55239 8.06348C7.63554 8.3194 7.34263 8.53221 7.12493 8.37405L5.16338 6.94889C5.06602 6.87816 4.93419 6.87815 4.83683 6.94889L2.87527 8.37404C2.65757 8.53221 2.36466 8.3194 2.44781 8.06348L3.19706 5.75753C3.23425 5.64308 3.19351 5.5177 3.09615 5.44696L1.13459 4.02181C0.916897 3.86364 1.02878 3.5193 1.29787 3.5193L3.72249 3.5193C3.84283 3.5193 3.94948 3.44181 3.98667 3.32736L4.73592 1.02141Z" fill="#FFCC47"/>
<path d="M14.736 1.02141C14.8192 0.765494 15.1813 0.765494 15.2644 1.02141L16.0137 3.32736C16.0508 3.44181 16.1575 3.5193 16.2778 3.5193L18.7025 3.5193C18.9715 3.5193 19.0834 3.86364 18.8657 4.02181L16.9042 5.44696C16.8068 5.5177 16.7661 5.64308 16.8033 5.75753L17.5525 8.06348C17.6357 8.3194 17.3428 8.53221 17.1251 8.37405L15.1635 6.94889C15.0661 6.87816 14.9343 6.87815 14.8369 6.94889L12.8754 8.37404C12.6577 8.53221 12.3648 8.3194 12.4479 8.06348L13.1972 5.75753C13.2344 5.64308 13.1936 5.5177 13.0963 5.44696L11.1347 4.02181C10.917 3.86364 11.0289 3.5193 11.298 3.5193L13.7226 3.5193C13.843 3.5193 13.9496 3.44181 13.9868 3.32736L14.736 1.02141Z" fill="#FFCC47"/>
<path d="M24.7356 1.02141C24.8187 0.765494 25.1808 0.765494 25.2639 1.02141L26.0132 3.32736C26.0504 3.44181 26.157 3.5193 26.2773 3.5193L28.702 3.5193C28.9711 3.5193 29.0829 3.86364 28.8652 4.02181L26.9037 5.44696C26.8063 5.5177 26.7656 5.64308 26.8028 5.75753L27.552 8.06348C27.6352 8.3194 27.3423 8.53221 27.1246 8.37405L25.163 6.94889C25.0657 6.87816 24.9338 6.87815 24.8365 6.94889L22.8749 8.37404C22.6572 8.53221 22.3643 8.3194 22.4474 8.06348L23.1967 5.75753C23.2339 5.64308 23.1931 5.5177 23.0958 5.44696L21.1342 4.02181C20.9165 3.86364 21.0284 3.5193 21.2975 3.5193L23.7221 3.5193C23.8425 3.5193 23.9491 3.44181 23.9863 3.32736L24.7356 1.02141Z" fill="#FFCC47"/>
<path d="M34.7359 1.02141C34.819 0.765494 35.1811 0.765494 35.2642 1.02141L36.0135 3.32736C36.0507 3.44181 36.1573 3.5193 36.2777 3.5193L38.7023 3.5193C38.9714 3.5193 39.0832 3.86364 38.8655 4.02181L36.904 5.44696C36.8066 5.5177 36.7659 5.64308 36.8031 5.75753L37.5523 8.06348C37.6355 8.3194 37.3426 8.53221 37.1249 8.37405L35.1633 6.94889C35.066 6.87816 34.9341 6.87815 34.8368 6.94889L32.8752 8.37404C32.6575 8.53221 32.3646 8.3194 32.4478 8.06348L33.197 5.75753C33.2342 5.64308 33.1934 5.5177 33.0961 5.44696L31.1345 4.02181C30.9168 3.86364 31.0287 3.5193 31.2978 3.5193L33.7224 3.5193C33.8428 3.5193 33.9494 3.44181 33.9866 3.32736L34.7359 1.02141Z" fill="#FFCC47"/>
<path d="M44.7358 1.02141C44.819 0.765494 45.181 0.765494 45.2642 1.02141L46.0134 3.32736C46.0506 3.44181 46.1573 3.5193 46.2776 3.5193L48.7022 3.5193C48.9713 3.5193 49.0832 3.86364 48.8655 4.02181L46.9039 5.44696C46.8066 5.5177 46.7658 5.64308 46.803 5.75753L47.5523 8.06348C47.6354 8.3194 47.3425 8.53221 47.1248 8.37405L45.1633 6.94889C45.0659 6.87816 44.9341 6.87815 44.8367 6.94889L42.8751 8.37404C42.6574 8.53221 42.3645 8.3194 42.4477 8.06348L43.1969 5.75753C43.2341 5.64308 43.1934 5.5177 43.096 5.44696L41.1345 4.02181C40.9168 3.86364 41.0287 3.5193 41.2977 3.5193L43.7224 3.5193C43.8427 3.5193 43.9494 3.44181 43.9865 3.32736L44.7358 1.02141Z" fill="#FFCC47"/>
</svg>
