<svg width="10" height="10" viewBox="0 0 10 10" fill="none" xmlns="http://www.w3.org/2000/svg">
<path d="M4.73575 1.02144C4.8189 0.765525 5.18096 0.765524 5.26412 1.02144L6.01336 3.32739C6.05055 3.44184 6.15721 3.51933 6.27755 3.51933L8.70217 3.51933C8.97126 3.51933 9.08314 3.86367 8.86544 4.02184L6.90388 5.44699C6.80652 5.51773 6.76579 5.64311 6.80297 5.75756L7.55222 8.06351C7.63538 8.31943 7.34246 8.53224 7.12477 8.37408L5.16321 6.94892C5.06585 6.87819 4.93402 6.87819 4.83666 6.94892L2.8751 8.37407C2.6574 8.53224 2.36449 8.31943 2.44764 8.06351L3.19689 5.75756C3.23408 5.64311 3.19334 5.51773 3.09599 5.44699L1.13443 4.02184C0.916729 3.86367 1.02861 3.51933 1.2977 3.51933L3.72232 3.51933C3.84266 3.51933 3.94932 3.44185 3.9865 3.32739L4.73575 1.02144Z" fill="#FFCC47"/>
</svg>
